<svg width="122" height="110" viewBox="0 0 122 110" fill="none" xmlns="http://www.w3.org/2000/svg">
<g clip-path="url(#clip0_1119_71)">
<path d="M108.42 44.28C107.15 44.47 105.86 44.56 104.54 44.56C98.0699 44.56 92.1299 42.33 87.4399 38.59V92.31C87.4399 94.24 87.7599 96.1 88.3599 97.83C90.6499 104.56 97.0199 109.41 104.54 109.41C113.98 109.41 121.63 101.75 121.63 92.31V38.59C117.9 41.56 113.37 43.58 108.42 44.28ZM104.54 0C97.0199 0 90.6499 4.85 88.3599 11.58C87.7599 13.31 87.4399 15.17 87.4399 17.1C87.4399 26.54 95.0899 34.2 104.54 34.2C104.84 34.2 105.13 34.19 105.42 34.18C114.45 33.71 121.62 26.24 121.62 17.1C121.62 7.96 113.98 0 104.54 0Z" fill="white" style="fill:white;fill-opacity:1;"/>
<path d="M108.42 44.28C108.42 44.28 108.41 44.23 108.4 44.2C107.14 44.39 105.85 44.48 104.54 44.48C89.41 44.48 77.16 32.22 77.16 17.1C77.16 13.12 78.01 9.35 79.54 5.94C72.09 2.14 63.65 0 54.71 0C24.5 0 0 24.49 0 54.71C0 84.93 24.5 109.41 54.71 109.41C67.4 109.41 79.08 105.09 88.36 97.83C101.17 87.83 109.41 72.23 109.41 54.71C109.41 51.14 109.07 47.66 108.42 44.28ZM54.71 76.73C42.54 76.73 32.69 66.87 32.69 54.71C32.69 42.55 42.54 32.68 54.71 32.68C66.88 32.68 76.73 42.54 76.73 54.71C76.73 66.88 66.87 76.73 54.71 76.73Z" fill="white" style="fill:white;fill-opacity:1;"/>
</g>
<defs>
<clipPath id="clip0_1119_71">
<rect width="121.63" height="109.41" fill="white" style="fill:white;fill-opacity:1;"/>
</clipPath>
</defs>
</svg>
